<svg xmlns="http://www.w3.org/2000/svg" xmlns:xlink="http://www.w3.org/1999/xlink" xmlns:inkscape="http://www.inkscape.org/namespaces/inkscape" version="1.1" width="384" height="384" viewBox="0 0 384 384">
<g>
<path d="M381.336 141.121C380.422 138.465 377.188 136.398 374.484 136.398H339.398C336.699 136.398 333.461 138.465 332.547 141.121 331.656 143.723 330.988 146.043 330.543 148.227L307.105 83.383C303.238 72.691 293 65.508 281.633 65.508H102.371C91 65.508 80.766 72.691 76.898 83.387L53.457 148.234C53.012 146.051 52.344 143.727 51.453 141.121 50.539 138.465 47.301 136.398 44.602 136.398H9.516C6.812 136.398 3.578 138.465 2.664 141.121-.887 151.469-.887 157.391 2.668 167.738 3.578 170.395 6.816 172.461 9.516 172.461H44.602C44.637 172.461 44.672 172.453 44.707 172.453L44.176 173.918C37.02 176.297 31.855 183.031 31.855 190.984V309.844C31.855 312.141 32.766 314.34 34.387 315.961 36.012 317.582 38.211 318.492 40.504 318.492H84.023C86.316 318.492 88.516 317.582 90.137 315.961 91.758 314.34 92.672 312.137 92.672 309.844V267.75H291.332V309.844C291.332 314.621 295.203 318.492 299.98 318.492H343.5C345.793 318.492 347.992 317.582 349.613 315.961 351.234 314.34 352.148 312.141 352.145 309.844V190.984C352.145 183.035 346.984 176.301 339.832 173.922L339.301 172.453C339.332 172.453 339.367 172.461 339.398 172.461H374.488C377.188 172.461 380.422 170.395 381.336 167.738 384.887 157.391 384.887 151.469 381.336 141.121ZM105.68 97.328H278.297L305.648 172.992H78.332ZM110.496 226.297H74.086C66.277 226.297 59.945 219.965 59.945 212.152 59.945 204.344 66.273 198.012 74.086 198.012H110.496C118.305 198.012 124.641 204.34 124.641 212.152 124.641 219.965 118.305 226.297 110.496 226.297ZM309.91 226.297H273.504C265.691 226.297 259.359 219.965 259.359 212.152 259.359 204.344 265.691 198.012 273.504 198.012H309.91C317.723 198.012 324.055 204.34 324.055 212.152 324.055 219.965 317.723 226.297 309.91 226.297ZM309.91 226.297"/>
</g>
</svg>
