<svg xmlns="http://www.w3.org/2000/svg" xmlns:xlink="http://www.w3.org/1999/xlink" xmlns:inkscape="http://www.inkscape.org/namespaces/inkscape" version="1.1" width="384" height="384" viewBox="0 0 384 384">
<g>
<path d="M55.5 48H232.5C239.98 48 246 54.02 246 61.5V334.5C246 341.98 239.98 348 232.5 348H55.5C48.02 348 42 341.98 42 334.5V61.5C42 54.02 48.02 48 55.5 48ZM55.5 48" fill="#eaeae8"/>
<path d="M42 72H246V312H42Z" fill="#43dcfe"/>
<path d="M210 264 207.797 267.305C201.676 276.484 191.371 282 180.34 282H78V102H210ZM210 264" fill="#0a9acd"/>
<path d="M210 264 212.203 267.305C218.324 276.484 228.629 282 239.66 282H342V102H210ZM210 264" fill="#0a9acd"/>
<path d="M210 258C174.434 250.098 137.566 250.098 102 258V102C137.566 94.098 174.434 94.098 210 102ZM210 258" fill="#8feaff"/>
<path d="M119.992 128.617C116.848 128.617 114.234 126.188 114.012 123.047 113.785 119.91 116.02 117.133 119.133 116.68 143.582 113.105 168.418 113.105 192.867 116.68 196.148 117.16 198.418 120.207 197.938 123.484 197.457 126.762 194.41 129.031 191.133 128.555 167.836 125.145 144.164 125.145 120.867 128.555 120.578 128.598 120.285 128.617 119.992 128.617ZM119.992 128.617" fill="#0bafea"/>
<path d="M192.008 158.617C191.715 158.617 191.422 158.598 191.133 158.555 187.262 157.988 183.32 157.508 179.422 157.129 177.836 156.977 176.379 156.199 175.367 154.969 174.355 153.742 173.875 152.164 174.027 150.578 174.18 148.996 174.957 147.535 176.188 146.523 177.414 145.512 178.996 145.031 180.578 145.184 184.672 145.582 188.805 146.086 192.867 146.676 195.98 147.129 198.215 149.906 197.988 153.047 197.766 156.184 195.152 158.613 192.008 158.613ZM192.008 158.617" fill="#0bafea"/>
<path d="M119.992 158.617C116.848 158.617 114.234 156.188 114.012 153.047 113.785 149.91 116.02 147.133 119.133 146.68 131.34 144.898 143.664 144.004 156 144 159.312 144 162 146.688 162 150 162 153.312 159.312 156 156 156 144.242 156.004 132.5 156.855 120.867 158.555 120.578 158.598 120.285 158.617 119.992 158.617ZM119.992 158.617" fill="#0bafea"/>
<path d="M192.008 188.617C191.715 188.617 191.422 188.598 191.133 188.555 179.5 186.855 167.758 186.004 156 186 152.688 186 150 183.312 150 180 150 176.688 152.688 174 156 174 168.336 174.004 180.66 174.898 192.867 176.68 195.98 177.133 198.215 179.91 197.988 183.047 197.766 186.188 195.152 188.617 192.008 188.617ZM192.008 188.617" fill="#0bafea"/>
<path d="M119.992 188.617C116.848 188.617 114.234 186.188 114.012 183.047 113.785 179.91 116.02 177.133 119.133 176.68 125.223 175.789 131.426 175.113 137.566 174.668 139.156 174.547 140.727 175.066 141.934 176.109 143.141 177.148 143.883 178.629 143.996 180.215 144.113 181.805 143.59 183.375 142.547 184.582 141.504 185.785 140.023 186.523 138.434 186.637 132.586 187.059 126.672 187.707 120.867 188.555 120.578 188.598 120.285 188.617 119.992 188.617ZM119.992 188.617" fill="#0bafea"/>
<path d="M119.992 218.617C116.848 218.617 114.234 216.188 114.012 213.047 113.785 209.91 116.02 207.133 119.133 206.68 135.402 204.305 151.863 203.508 168.289 204.297 169.887 204.363 171.391 205.062 172.469 206.242 173.547 207.422 174.109 208.984 174.035 210.582 173.957 212.176 173.246 213.676 172.059 214.746 170.871 215.816 169.305 216.371 167.711 216.281 152.059 215.531 136.371 216.289 120.867 218.555 120.578 218.598 120.285 218.617 119.992 218.617ZM119.992 218.617" fill="#0bafea"/>
<path d="M210 258C245.566 250.098 282.434 250.098 318 258V102C282.434 94.098 245.566 94.098 210 102ZM210 258" fill="#0bafea"/>
<path d="M210 258 294 216V60L210 102ZM210 258" fill="#8feaff"/>
<path d="M216 99V255L210 258V102ZM216 99" fill="#8feaff"/>
<path d="M228.004 123C225.219 123.004 222.801 121.09 222.16 118.379 221.52 115.672 222.824 112.875 225.316 111.633L273.316 87.633C274.742 86.906 276.398 86.777 277.918 87.277 279.438 87.777 280.691 88.863 281.41 90.293 282.125 91.723 282.238 93.383 281.727 94.898 281.215 96.414 280.121 97.66 278.684 98.363L230.684 122.363C229.852 122.781 228.934 123 228.004 123ZM228.004 123" fill="#0bafea"/>
<path d="M228.004 153C225.219 153.004 222.801 151.09 222.16 148.379 221.52 145.672 222.824 142.875 225.316 141.633L243.316 132.633C244.742 131.906 246.398 131.777 247.918 132.277 249.438 132.777 250.691 133.863 251.41 135.293 252.125 136.723 252.238 138.383 251.727 139.898 251.215 141.414 250.121 142.66 248.684 143.363L230.684 152.363C229.852 152.781 228.934 153 228.004 153ZM228.004 153" fill="#0bafea"/>
<path d="M264.004 135C261.219 135.004 258.801 133.09 258.16 130.379 257.52 127.672 258.824 124.875 261.316 123.633L267.316 120.633C268.742 119.906 270.398 119.777 271.918 120.277 273.438 120.777 274.691 121.863 275.41 123.293 276.125 124.723 276.238 126.383 275.727 127.898 275.215 129.414 274.121 130.66 272.684 131.363L266.684 134.363C265.852 134.781 264.934 135 264.004 135ZM264.004 135" fill="#0bafea"/>
<path d="M228.004 213C225.219 213.004 222.801 211.09 222.16 208.379 221.52 205.672 222.824 202.875 225.316 201.633L231.316 198.633C232.742 197.906 234.398 197.777 235.918 198.277 237.438 198.777 238.691 199.863 239.41 201.293 240.125 202.723 240.238 204.383 239.727 205.898 239.215 207.414 238.121 208.66 236.684 209.363L230.684 212.363C229.852 212.781 228.934 213 228.004 213ZM228.004 213" fill="#0bafea"/>
<path d="M228.004 183C225.219 183.004 222.801 181.09 222.16 178.379 221.52 175.672 222.824 172.875 225.316 171.633L261.316 153.633C262.742 152.906 264.398 152.777 265.918 153.277 267.438 153.777 268.691 154.863 269.41 156.293 270.125 157.723 270.238 159.383 269.727 160.898 269.215 162.414 268.121 163.66 266.684 164.363L230.684 182.363C229.852 182.781 228.934 183 228.004 183ZM228.004 183" fill="#0bafea"/>
<path d="M252.004 201C249.219 201.004 246.801 199.09 246.16 196.379 245.52 193.672 246.824 190.875 249.316 189.633L273.316 177.633C274.742 176.906 276.398 176.777 277.918 177.277 279.438 177.777 280.691 178.863 281.41 180.293 282.125 181.723 282.238 183.383 281.727 184.898 281.215 186.414 280.121 187.66 278.684 188.363L254.684 200.363C253.852 200.781 252.934 201 252.004 201ZM252.004 201" fill="#0bafea"/>
<path d="M162 330C162 339.941 153.941 348 144 348 134.059 348 126 339.941 126 330 126 320.059 134.059 312 144 312 153.941 312 162 320.059 162 330ZM162 330" fill="#cbcbcb"/>
<path d="M282 312H270C266.688 312 264 309.312 264 306 264 302.688 266.688 300 270 300H282C285.312 300 288 302.688 288 306 288 309.312 285.312 312 282 312ZM282 312" fill="#8feaff"/>
<path d="M336 312H306C302.688 312 300 309.312 300 306 300 302.688 302.688 300 306 300H336C339.312 300 342 302.688 342 306 342 309.312 339.312 312 336 312ZM336 312" fill="#8feaff"/>
<path d="M216 99V255L210 258V102ZM216 99" fill="#87ddf0"/>
</g>
</svg>
