<svg xmlns="http://www.w3.org/2000/svg" xmlns:xlink="http://www.w3.org/1999/xlink" xmlns:inkscape="http://www.inkscape.org/namespaces/inkscape" version="1.1" width="384" height="384" viewBox="0 0 384 384">
<g>
<path d="M31.5 66H352.5C359.98 66 366 72.02 366 79.5V292.5C366 299.98 359.98 306 352.5 306H31.5C24.02 306 18 299.98 18 292.5V79.5C18 72.02 24.02 66 31.5 66ZM31.5 66" fill="#0296e5"/>
<path d="M42 90H342V282H42Z" fill="#eaeae8"/>
<path d="M138 342H246L252 366H132ZM138 342" fill="#0296e5"/>
<path d="M114 162C114 171.941 105.941 180 96 180 86.059 180 78 171.941 78 162 78 152.059 86.059 144 96 144 105.941 144 114 152.059 114 162ZM114 162" fill="#fbb540"/>
<path d="M114 234C114 243.941 105.941 252 96 252 86.059 252 78 243.941 78 234 78 224.059 86.059 216 96 216 105.941 216 114 224.059 114 234ZM114 234" fill="#fbb540"/>
<path d="M96 168C95.711 168 95.426 167.98 95.141 167.938 93.453 167.695 91.953 166.746 91.008 165.328L79.008 147.328C77.191 144.57 77.941 140.867 80.688 139.035 83.438 137.203 87.145 137.934 88.992 140.672L97.289 153.117 128.16 127.391C130.703 125.27 134.488 125.613 136.609 128.16 138.73 130.703 138.387 134.488 135.84 136.609L99.84 166.609C98.762 167.508 97.402 168 96 168ZM96 168" fill="#ff6268"/>
<path d="M174 174H150C146.688 174 144 171.312 144 168 144 164.688 146.688 162 150 162H174C177.312 162 180 164.688 180 168 180 171.312 177.312 174 174 174ZM174 174" fill="#cbcbcb"/>
<path d="M258 174H198C194.688 174 192 171.312 192 168 192 164.688 194.688 162 198 162H258C261.312 162 264 164.688 264 168 264 171.312 261.312 174 258 174ZM258 174" fill="#cbcbcb"/>
<path d="M198 198H150C146.688 198 144 195.312 144 192 144 188.688 146.688 186 150 186H198C201.312 186 204 188.688 204 192 204 195.312 201.312 198 198 198ZM198 198" fill="#cbcbcb"/>
<path d="M258 234H150C146.688 234 144 231.312 144 228 144 224.688 146.688 222 150 222H258C261.312 222 264 224.688 264 228 264 231.312 261.312 234 258 234ZM258 234" fill="#cbcbcb"/>
<path d="M174 258H150C146.688 258 144 255.312 144 252 144 248.688 146.688 246 150 246H174C177.312 246 180 248.688 180 252 180 255.312 177.312 258 174 258ZM174 258" fill="#cbcbcb"/>
<path d="M258 258H204C200.688 258 198 255.312 198 252 198 248.688 200.688 246 204 246H258C261.312 246 264 248.688 264 252 264 255.312 261.312 258 258 258ZM258 258" fill="#cbcbcb"/>
<path d="M240 198H222C218.688 198 216 195.312 216 192 216 188.688 218.688 186 222 186H240C243.312 186 246 188.688 246 192 246 195.312 243.312 198 240 198ZM240 198" fill="#cbcbcb"/>
<path d="M42 90H342V114H42Z" fill="#ff6268"/>
<path d="M204 306V312C204 318.629 198.629 324 192 324 185.371 324 180 318.629 180 312V306H162V342H222V306ZM204 306" fill="#026ca2"/>
<path d="M192 42C188.688 42 186 39.312 186 36V24C186 20.688 188.688 18 192 18 195.312 18 198 20.688 198 24V36C198 39.312 195.312 42 192 42ZM192 42" fill="#026ca2"/>
<path d="M204 24H180C176.688 24 174 21.312 174 18 174 14.688 176.688 12 180 12H204C207.312 12 210 14.688 210 18 210 21.312 207.312 24 204 24ZM204 24" fill="#0296e5"/>
<path d="M240 84C240 110.508 218.508 132 192 132 165.492 132 144 110.508 144 84 144 57.492 165.492 36 192 36 218.508 36 240 57.492 240 84ZM240 84" fill="#8feaff"/>
<path d="M203.996 96C203.066 96 202.148 95.781 201.316 95.363L189.316 89.363C187.285 88.348 186 86.273 186 84V60C186 56.688 188.688 54 192 54 195.312 54 198 56.688 198 60V80.293L206.684 84.633C209.172 85.879 210.48 88.672 209.84 91.379 209.199 94.09 206.777 96 203.996 96ZM203.996 96" fill="#0296e5"/>
<path d="M192 120C176.504 120 162.746 110.086 157.848 95.383 152.949 80.684 158.004 64.496 170.398 55.199 171.668 54.199 173.289 53.75 174.891 53.961 176.496 54.168 177.945 55.016 178.918 56.309 179.887 57.602 180.293 59.23 180.047 60.828 179.797 62.426 178.918 63.855 177.602 64.797 167.855 72.105 165.129 85.555 171.262 96.082 177.391 106.605 190.434 110.875 201.602 106.004 203.066 105.324 204.746 105.262 206.258 105.832 207.77 106.402 208.988 107.562 209.633 109.043 210.281 110.523 210.301 112.207 209.691 113.703 209.086 115.199 207.898 116.391 206.398 117 201.859 118.988 196.957 120.008 192 120ZM192 120" fill="#43dcfe"/>
</g>
</svg>
