<svg xmlns="http://www.w3.org/2000/svg" xmlns:xlink="http://www.w3.org/1999/xlink" xmlns:inkscape="http://www.inkscape.org/namespaces/inkscape" version="1.1" width="384" height="384" viewBox="0 0 384 384">
<g>
<path d="M372 84V300C372 313.254 361.254 324 348 324H36C22.746 324 12 313.254 12 300V84ZM372 84" fill="#ffd422"/>
<path d="M372 72V84H12V72C12 58.746 22.746 48 36 48H348C361.254 48 372 58.746 372 72ZM372 72" fill="#3d9ae2"/>
<path d="M176.641 266.52 160.199 259.199 144 252V235.922C156.719 229.926 165.562 217.926 167.52 204H174C180.629 204 186 198.629 186 192 186 185.371 180.629 180 174 180H168V162C168 138.805 149.195 120 126 120 102.805 120 84 138.805 84 162V180H78C71.371 180 66 185.371 66 192 66 198.629 71.371 204 78 204H84.48C86.434 217.926 95.277 229.93 108 235.922V252L91.801 259.199 75.359 266.52C62.371 272.301 54.004 285.184 54 299.398V312H198V299.398C197.996 285.184 189.629 272.301 176.641 266.52ZM176.641 266.52" fill="#ebbf00"/>
<path d="M186 287.398V300H132L121.078 262.922 126 258 144 264 148.199 247.199 164.641 254.52C177.629 260.301 185.996 273.184 186 287.398ZM186 287.398" fill="#898890"/>
<path d="M174 180C173.98 186.621 168.621 191.98 162 192H150V168H162C168.621 168.02 173.98 173.379 174 180ZM174 180" fill="#ffb655"/>
<path d="M156 150V162H152.039C143.797 161.969 136.613 156.367 134.578 148.379L132 138C132 151.254 121.254 162 108 162H72V150C72 126.805 90.805 108 114 108 137.195 108 156 126.805 156 150ZM156 150" fill="#57565c"/>
<path d="M148.199 247.199 144 264 126 258 120 246 132 240ZM148.199 247.199" fill="#57565c"/>
<path d="M121.078 262.922 132 300H96L106.922 262.922 114 270ZM121.078 262.922" fill="#c6c5ca"/>
<path d="M120 246 126 258 114 270 102 258 108 246ZM120 246" fill="#acabb1"/>
<path d="M108 246 102 258 84 264 79.801 247.199 96 240ZM108 246" fill="#57565c"/>
<path d="M106.922 262.922 96 300H42V287.398C42.004 273.184 50.371 260.301 63.359 254.52L79.801 247.199 84 264 102 258ZM106.922 262.922" fill="#898890"/>
<path d="M78 168V192H66C59.371 192 54 186.629 54 180 54 173.371 59.371 168 66 168ZM78 168" fill="#ffb655"/>
<path d="M132 222V240L120 246H108L96 240V222ZM132 222" fill="#ffc477"/>
<path d="M132 222V235.922C120.617 241.359 107.383 241.359 96 235.922V222ZM132 222" fill="#ffb655"/>
<path d="M156 162V186C156.023 188.012 155.863 190.02 155.52 192 153.562 205.926 144.719 217.926 132 223.922 119.965 229.664 105.91 229.336 94.156 223.031 82.402 216.727 74.355 205.203 72.48 192 72.137 190.02 71.977 188.012 72 186V162H108C121.254 162 132 151.254 132 138L134.578 148.379C136.613 156.367 143.797 161.969 152.039 162ZM156 162" fill="#ffc477"/>
<path d="M90 174H102V186H90Z" fill="#ee8700"/>
<path d="M126 174H138V186H126Z" fill="#ee8700"/>
<path d="M204 108H228V120H204Z" fill="#ddb200"/>
<path d="M252 108H264V120H252Z" fill="#ebbf00"/>
<path d="M276 108H288V120H276Z" fill="#ebbf00"/>
<path d="M300 108H312V120H300Z" fill="#ebbf00"/>
<path d="M324 108H336V120H324Z" fill="#ebbf00"/>
<path d="M204 186H240V198H204Z" fill="#ddb200"/>
<path d="M252 162H276V174H252Z" fill="#ebbf00"/>
<path d="M288 162H336V174H288Z" fill="#ebbf00"/>
<path d="M252 186H336V198H252Z" fill="#ebbf00"/>
<path d="M252 222H264V234H252Z" fill="#ebbf00"/>
<path d="M276 222H288V234H276Z" fill="#ebbf00"/>
<path d="M300 222H312V234H300Z" fill="#ebbf00"/>
<path d="M324 222H336V234H324Z" fill="#ebbf00"/>
<path d="M252 288H276V300H252Z" fill="#ebbf00"/>
<path d="M288 288H312V300H288Z" fill="#ebbf00"/>
<path d="M324 288H336V300H324Z" fill="#ebbf00"/>
</g>
</svg>
