<svg xmlns="http://www.w3.org/2000/svg" xmlns:xlink="http://www.w3.org/1999/xlink" xmlns:inkscape="http://www.inkscape.org/namespaces/inkscape" version="1.1" width="384" height="384" viewBox="0 0 384 384">
<g>
<path d="M191.859 220.004H192.141C208.109 220.004 220.965 232.859 220.965 248.828V355.176C220.965 371.145 208.109 384 192.141 384H191.859C175.891 384 163.035 371.145 163.035 355.176V248.828C163.035 232.859 175.891 220.004 191.859 220.004ZM191.859 220.004"/>
<path d="M308.34 32.512H271.336C268.379 26.762 262.402 22.816 255.488 22.816H238.336C232.734 22.816 227.527 20.121 224.086 15.699 216.652 6.141 205.043-.008 192-.008 178.957-.008 167.348 6.141 159.914 15.699 156.473 20.121 151.273 22.816 145.664 22.816H128.512C121.598 22.816 115.621 26.762 112.664 32.512H75.66C71.176 32.512 67.539 36.148 67.539 40.637 67.539 45.121 71.176 48.758 75.66 48.758H112.664C115.621 54.512 121.598 58.453 128.512 58.453H145.664C151.266 58.453 156.473 61.148 159.914 65.574 167.348 75.129 178.957 81.277 192 81.277 205.043 81.277 216.652 75.129 224.086 65.574 227.527 61.148 232.727 58.453 238.336 58.453H255.488C262.402 58.453 268.379 54.512 271.336 48.758H308.34C312.824 48.758 316.461 45.121 316.461 40.637 316.461 36.148 312.824 32.512 308.34 32.512ZM192 63.148C179.477 63.148 169.328 53.004 169.328 40.477 169.328 27.953 179.477 17.805 192 17.805 204.523 17.805 214.672 27.953 214.672 40.477 214.672 53.004 204.523 63.148 192 63.148ZM285.031 137.969C281.16 118.004 262.914 98.691 243 94.281 230.91 91.77 214.461 89.309 192 89.266 169.547 89.301 153.098 91.77 141 94.281 121.086 98.691 102.84 117.996 98.969 137.969 96.539 150.141 93.531 184.074 93.781 206.52 93.531 228.969 96.539 262.906 98.969 275.07 102.84 295.043 121.086 314.348 141 318.758 143.738 319.328 146.715 319.891 149.918 320.43V248.969C149.918 225.773 168.797 206.895 191.992 206.895 215.191 206.895 234.066 225.773 234.066 248.969V320.43C237.27 319.891 240.246 319.328 242.984 318.758 262.898 314.348 281.145 295.043 285.016 275.07 287.445 262.906 290.453 228.969 290.203 206.52 290.453 184.074 287.445 150.137 285.016 137.969ZM144.578 171.938C144.047 174.676 141.547 177.324 138.809 177.93 137.152 178.273 134.895 178.613 131.812 178.621 128.73 178.621 126.48 178.273 124.816 177.93 122.086 177.324 119.578 174.676 119.047 171.938 118.719 170.266 118.336 163.449 118.336 154.23 118.336 145.012 118.711 138.188 119.047 136.523 119.578 133.785 122.078 131.137 124.816 130.531 126.473 130.184 128.73 129.848 131.812 129.84 134.895 129.84 137.145 130.184 138.809 130.531 141.539 131.137 144.047 133.785 144.578 136.523 144.906 138.195 145.289 145.539 145.289 154.23 145.289 163.453 144.914 170.273 144.578 171.938ZM264.938 171.938C264.406 174.676 261.906 177.324 259.172 177.93 257.512 178.273 255.254 178.613 252.172 178.621 249.09 178.621 246.84 178.273 245.176 177.93 242.445 177.324 239.941 174.676 239.406 171.938 239.078 170.266 238.695 163.449 238.695 154.23 238.695 145.012 239.07 138.188 239.406 136.523 239.941 133.785 242.438 131.137 245.176 130.531 246.832 130.184 249.09 129.848 252.172 129.84 255.254 129.84 257.504 130.184 259.172 130.531 261.898 131.137 264.406 133.785 264.938 136.523 265.266 138.195 265.648 145.539 265.648 154.23 265.648 163.453 265.273 170.273 264.938 171.938ZM264.938 171.938"/>
</g>
</svg>
