<svg xmlns="http://www.w3.org/2000/svg" xmlns:xlink="http://www.w3.org/1999/xlink" xmlns:inkscape="http://www.inkscape.org/namespaces/inkscape" version="1.1" width="384" height="384" viewBox="0 0 384 384">
<g>
<path d="M102 289.996C102 327.996 60 366 60 366 60 366 18 327.996 18 289.996 17.461 266.254 36.258 246.562 60 246 83.742 246.562 102.539 266.254 102 289.996ZM102 289.996" fill="#e64a19"/>
<path d="M84 288C84 301.254 73.254 312 60 312 46.746 312 36 301.254 36 288 36 274.746 46.746 264 60 264 73.254 264 84 274.746 84 288ZM84 288" fill="#ffd54f"/>
<path d="M366 78H282V18H366L348 48ZM366 78" fill="#e64a19"/>
<path d="M276 18H288V120H276Z" fill="#36474f"/>
<path d="M90 366H258C311.02 366 354 323.02 354 270 354 216.98 311.02 174 258 174H144C127.43 174 114 160.57 114 144 114 127.43 127.43 114 144 114H264V66H144C100.922 66 66 100.922 66 144 66 187.078 100.922 222 144 222H258C284.508 222 306 243.492 306 270 306 296.508 284.508 318 258 318H120ZM90 366" fill="#253238"/>
<path d="M252 84H264V96H252Z" fill="#f5f5f5"/>
<path d="M112.766 107.551C118.273 102.836 124.773 99.422 131.785 97.566L128.742 85.961C119.977 88.277 111.844 92.543 104.957 98.441ZM112.766 107.551" fill="#f5f5f5"/>
<path d="M203.242 84H227.621V96H203.242Z" fill="#f5f5f5"/>
<path d="M183.211 192H207.59V204H183.211Z" fill="#f5f5f5"/>
<path d="M158.824 204V192H144C141.168 191.996 138.336 191.75 135.547 191.262L133.457 203.074C136.938 203.688 140.465 204 144 204ZM158.824 204" fill="#f5f5f5"/>
<path d="M231.965 192H256.344V204H231.965Z" fill="#f5f5f5"/>
<path d="M108.742 192.551 115.801 182.852C109.938 178.574 105.109 173.039 101.676 166.648L91.098 172.324C95.395 180.301 101.426 187.215 108.742 192.551ZM108.742 192.551" fill="#f5f5f5"/>
<path d="M88.984 120C85.68 127.57 83.984 135.742 84 144 84 144.809 84 145.613 84.047 146.398L96.047 145.906C96 145.285 96 144.641 96 144 95.984 137.395 97.34 130.855 99.984 124.801ZM88.984 120" fill="#f5f5f5"/>
<path d="M154.488 84H178.867V96H154.488Z" fill="#f5f5f5"/>
<path d="M242.148 336V348H258C261.074 348 264.148 347.82 267.203 347.461L265.801 335.543C263.211 335.848 260.605 336 258 336ZM242.148 336" fill="#f5f5f5"/>
<path d="M193.391 336H217.77V348H193.391Z" fill="#f5f5f5"/>
<path d="M144.637 336H169.01599V348H144.637Z" fill="#f5f5f5"/>
<path d="M313.273 233.922C317.367 240.164 320.359 247.066 322.121 254.32L333.781 251.484C331.695 242.906 328.156 234.75 323.316 227.371ZM313.273 233.922" fill="#f5f5f5"/>
<path d="M287.117 329.25 292.414 340.051C300.332 336.141 307.531 330.918 313.699 324.602L305.125 316.199C299.906 321.539 293.816 325.953 287.117 329.25ZM287.117 329.25" fill="#f5f5f5"/>
<path d="M305.449 208.094C298.457 202.711 290.594 198.562 282.203 195.836L278.484 207.234C285.578 209.551 292.223 213.059 298.141 217.609ZM305.449 208.094" fill="#f5f5f5"/>
<path d="M328.688 303.031C332.43 295.031 334.777 286.453 335.629 277.66L323.688 276.504C322.965 283.934 320.98 291.184 317.812 297.941ZM328.688 303.031" fill="#f5f5f5"/>
<path d="M120 336H108.75L101.25 348H120ZM120 336" fill="#f5f5f5"/>
</g>
</svg>
