<svg xmlns="http://www.w3.org/2000/svg" xmlns:xlink="http://www.w3.org/1999/xlink" xmlns:inkscape="http://www.inkscape.org/namespaces/inkscape" version="1.1" width="384" height="384" viewBox="0 0 384 384">
<g>
<path d="M222 30V315H162V30C162 13.434 175.434 0 192 0 208.566 0 222 13.434 222 30ZM222 30" fill="#734536"/>
<path d="M222 315V30C222 13.434 208.566 0 192 0V315ZM222 315" fill="#4f2e26"/>
<path d="M252 264H72C69.367 264 66.82 263.078 64.797 261.391L19.797 223.891C17.234 221.754 15.75 218.59 15.75 215.25 15.75 211.91 17.234 208.746 19.797 206.609L64.797 169.109C66.82 167.422 69.367 166.5 72 166.5H252C258.215 166.5 263.25 171.535 263.25 177.75V252.75C263.25 258.965 258.215 264 252 264ZM252 264" fill="#9d5e4a"/>
<path d="M252 166.5H192V264H252C258.215 264 263.25 258.965 263.25 252.75V177.75C263.25 171.535 258.215 166.5 252 166.5ZM252 166.5" fill="#734536"/>
<path d="M259.5 309C252.594 309 245.832 310.25 239.488 312.668 229.328 296.637 211.508 286.5 192 286.5 169.758 286.5 150.066 299.57 141.016 319.004 135.684 317.352 130.117 316.5 124.5 316.5 93.484 316.5 68.25 341.734 68.25 372.75L314.918 374.617C315.477 371.293 315.75 368.23 315.75 365.25 315.75 334.234 290.516 309 259.5 309ZM259.5 309" fill="#14cd6e"/>
<path d="M314.918 374.617C315.477 371.293 315.75 368.23 315.75 365.25 315.75 334.234 290.516 309 259.5 309 252.594 309 245.832 310.25 239.488 312.668 229.328 296.637 211.508 286.5 192 286.5V373.688ZM314.918 374.617" fill="#00a084"/>
<path d="M372.75 384H11.25C5.035 384 0 378.965 0 372.75 0 366.535 5.035 361.5 11.25 361.5H372.75C378.965 361.5 384 366.535 384 372.75 384 378.965 378.965 384 372.75 384ZM372.75 384" fill="#beda4b"/>
<path d="M372.75 361.5H192V384H372.75C378.965 384 384 378.965 384 372.75 384 366.535 378.965 361.5 372.75 361.5ZM372.75 361.5" fill="#14cd6e"/>
<path d="M312 136.5H132C125.785 136.5 120.75 131.465 120.75 125.25V50.25C120.75 44.035 125.785 39 132 39H312C314.633 39 317.18 39.922 319.203 41.609L364.203 79.109C366.766 81.246 368.25 84.41 368.25 87.75 368.25 91.09 366.766 94.254 364.203 96.391L319.203 133.891C317.18 135.578 314.633 136.5 312 136.5ZM312 136.5" fill="#9d5e4a"/>
<path d="M364.203 79.109 319.203 41.609C317.18 39.922 314.633 39 312 39H192V136.5H312C314.633 136.5 317.18 135.578 319.203 133.891L364.203 96.391C366.766 94.254 368.25 91.09 368.25 87.75 368.25 84.41 366.766 81.246 364.203 79.109ZM364.203 79.109" fill="#734536"/>
<path d="M297 166.5H252V264H297C303.215 264 308.25 258.965 308.25 252.75V177.75C308.25 171.535 303.215 166.5 297 166.5ZM297 166.5" fill="#ff9d21"/>
<path d="M87 39C80.785 39 75.75 44.035 75.75 50.25V125.25C75.75 131.465 80.785 136.5 87 136.5H132V39ZM87 39" fill="#ffde46"/>
</g>
</svg>
