<svg xmlns="http://www.w3.org/2000/svg" xmlns:xlink="http://www.w3.org/1999/xlink" xmlns:inkscape="http://www.inkscape.org/namespaces/inkscape" version="1.1" width="384" height="384" viewBox="0 0 384 384">
<g>
<path d="M339.652 313.863V254.648C339.652 241.926 329.34 231.613 316.617 231.613H310.594V15.434C310.594 13.5 309.625 11.695 308.012 10.629L293.387 .965C289.559-1.566 284.453 1.18 284.453 5.77V75.199L280.098 63.441C274.234 47.633 259.156 37.141 242.297 37.141H141.617C124.656 37.141 109.512 47.754 103.723 63.695L99.547 75.199V5.77C99.547 1.18 94.441-1.566 90.613 .965L75.988 10.629C74.375 11.695 73.406 13.5 73.406 15.434V231.613H67.383C54.66 231.613 44.348 241.926 44.348 254.648V313.863H34.531C33.004 313.863 31.539 314.469 30.461 315.551 29.379 316.629 28.773 318.094 28.773 319.621V351.461C28.773 354.641 31.352 357.219 34.531 357.219H59.379V372.48C59.379 378.844 64.535 384 70.895 384H101.418C107.781 384 112.938 378.844 112.938 372.48V357.219H271.062V372.48C271.062 378.844 276.223 384 282.582 384H313.105C319.465 384 324.625 378.844 324.625 372.48V357.219H349.469C352.648 357.219 355.227 354.641 355.227 351.461V319.621C355.227 318.094 354.621 316.629 353.543 315.551 352.461 314.469 350.996 313.863 349.469 313.863ZM107.176 107.277H276.824V164.023H107.176ZM103.234 297.746H83.559C77.547 297.746 72.672 292.871 72.672 286.859V286.586C72.672 280.574 77.547 275.699 83.559 275.699H103.23C109.242 275.699 114.117 280.574 114.117 286.586V286.859C114.117 292.871 109.246 297.746 103.234 297.746ZM231.152 300.957H152.848C146.488 300.957 141.328 295.797 141.328 289.438V216.457C141.328 210.094 146.488 204.938 152.848 204.938H231.152C237.512 204.938 242.668 210.094 242.668 216.457V289.438C242.672 295.797 237.512 300.957 231.152 300.957ZM300.441 297.746H280.766C274.758 297.746 269.883 292.871 269.883 286.859V286.586C269.883 280.574 274.758 275.699 280.766 275.699H300.441C306.453 275.699 311.328 280.574 311.328 286.586V286.859C311.328 292.871 306.453 297.746 300.441 297.746ZM229.402 247.09H154.414C152.902 247.09 151.453 246.488 150.383 245.422 149.312 244.352 148.715 242.902 148.715 241.387V241.273C148.715 239.762 149.312 238.312 150.383 237.242 151.453 236.172 152.902 235.57 154.414 235.57H229.402C230.914 235.57 232.363 236.172 233.434 237.242 234.5 238.312 235.102 239.762 235.102 241.273V241.387C235.102 242.902 234.5 244.352 233.434 245.422 232.363 246.488 230.914 247.09 229.402 247.09ZM229.402 224.055H154.414C151.266 224.055 148.715 221.5 148.715 218.352V218.234C148.715 216.723 149.312 215.273 150.383 214.203 151.453 213.137 152.902 212.535 154.414 212.535H229.402C230.914 212.535 232.363 213.137 233.434 214.203 234.5 215.273 235.102 216.723 235.102 218.234V218.352C235.102 221.5 232.551 224.055 229.402 224.055ZM229.402 293.164H154.414C151.266 293.164 148.715 290.613 148.715 287.465V287.348C148.715 284.199 151.266 281.645 154.414 281.645H229.402C232.551 281.645 235.102 284.199 235.102 287.348V287.465C235.102 290.613 232.551 293.164 229.402 293.164ZM229.402 270.129H154.414C152.902 270.129 151.453 269.527 150.383 268.457 149.312 267.391 148.715 265.938 148.715 264.426V264.312C148.715 261.164 151.266 258.609 154.414 258.609H229.402C232.551 258.609 235.102 261.164 235.102 264.312V264.426C235.102 265.938 234.5 267.391 233.434 268.457 232.363 269.527 230.914 270.129 229.402 270.129ZM229.402 270.129"/>
</g>
</svg>
